<svg width="24" height="24" viewBox="0 0 24 24" fill="none" xmlns="http://www.w3.org/2000/svg">
<path d="M2.06153 12.3479C1.97819 12.1234 1.97819 11.8764 2.06153 11.6519C2.87323 9.68373 4.25104 8.00091 6.0203 6.81677C7.78955 5.63263 9.87057 5.00049 11.9995 5.00049C14.1285 5.00049 16.2095 5.63263 17.9788 6.81677C19.748 8.00091 21.1258 9.68373 21.9375 11.6519C22.0209 11.8764 22.0209 12.1234 21.9375 12.3479C21.1258 14.316 19.748 15.9988 17.9788 17.183C16.2095 18.3671 14.1285 18.9993 11.9995 18.9993C9.87057 18.9993 7.78955 18.3671 6.0203 17.183C4.25104 15.9988 2.87323 14.316 2.06153 12.3479Z" stroke="#8A8480" stroke-width="2" stroke-linecap="round" stroke-linejoin="round"/>
<path d="M12 15C13.6569 15 15 13.6569 15 12C15 10.3431 13.6569 9 12 9C10.3431 9 9 10.3431 9 12C9 13.6569 10.3431 15 12 15Z" stroke="#8A8480" stroke-width="2" stroke-linecap="round" stroke-linejoin="round"/>
</svg>
