<svg width="160" height="48" viewBox="0 0 160 48" fill="none" xmlns="http://www.w3.org/2000/svg">
<g id="logo (1) 1" clip-path="url(#clip0_40000366_6954)">
<g id="Mask group">
<mask id="mask0_40000366_6954" style="mask-type:luminance" maskUnits="userSpaceOnUse" x="0" y="0" width="25" height="48">
<g id="Group">
<path id="Vector" d="M21.6054 41.3984L6.6176 26.5588L2.86733 26.5587L24.2534 47.7333V21.2972H6.42184L21.6054 6.31856V18.6923H24.2534V0L0 23.9262H21.6054V41.3984Z" fill="white"/>
</g>
</mask>
<g mask="url(#mask0_40000366_6954)">
<g id="Group_2">
<g id="Mask group_2">
<mask id="mask1_40000366_6954" style="mask-type:luminance" maskUnits="userSpaceOnUse" x="-8" y="-11" width="170" height="69">
<g id="Group_3">
<path id="Vector_2" d="M161.027 -10.125H-7.28906V57.2013H161.027V-10.125Z" fill="white"/>
</g>
</mask>
<g mask="url(#mask1_40000366_6954)">
<g id="Group_4">
<path id="Vector_3" d="M24.9151 -0.65625H-0.663574V48.392H24.9151V-0.65625Z" fill="#F5A631"/>
</g>
</g>
</g>
</g>
</g>
</g>
<g id="Mask group_3">
<mask id="mask2_40000366_6954" style="mask-type:luminance" maskUnits="userSpaceOnUse" x="26" y="0" width="26" height="48">
<g id="Group_5">
<path id="Vector_4" d="M29.5533 41.3984L44.541 26.5588L48.2911 26.5587L26.9053 47.7333V21.2972H44.7367L29.5533 6.31856V18.6923H26.9053V0L51.1586 23.9262H29.5533V41.3984Z" fill="white"/>
</g>
</mask>
<g mask="url(#mask2_40000366_6954)">
<g id="Group_6">
<g id="Mask group_4">
<mask id="mask3_40000366_6954" style="mask-type:luminance" maskUnits="userSpaceOnUse" x="-8" y="-11" width="170" height="69">
<g id="Group_7">
<path id="Vector_5" d="M161.03 -10.125H-7.28613V57.2013H161.03V-10.125Z" fill="white"/>
</g>
</mask>
<g mask="url(#mask3_40000366_6954)">
<g id="Group_8">
<path id="Vector_6" d="M51.8193 -0.65625H26.2407V48.392H51.8193V-0.65625Z" fill="#F5A631"/>
</g>
</g>
</g>
</g>
</g>
</g>
<g id="Mask group_5">
<mask id="mask4_40000366_6954" style="mask-type:luminance" maskUnits="userSpaceOnUse" x="58" y="5" width="102" height="33">
<g id="Group_9">
<path id="Vector_7" d="M140.823 5.72767H147.298V19.1247L153.101 5.72767H159.418L153.417 19.9865L159.892 37.4576H153.299L148.364 23.277L147.298 25.0006V37.4576H140.823V5.72767ZM120.332 35.1659C118.911 33.351 118.2 30.7328 118.2 27.3118V15.9517C118.2 12.4523 118.904 9.80818 120.312 8.01919C121.721 6.23036 124.135 5.33594 127.557 5.33594C130.821 5.33594 133.131 6.12594 134.486 7.70596C135.842 9.28596 136.519 11.5514 136.519 14.5023V17.1661H130.202V14.2281C130.202 13.288 130.156 12.5306 130.064 11.9561C129.972 11.3816 129.735 10.905 129.354 10.5262C128.972 10.1476 128.386 9.95831 127.597 9.95831C126.412 9.95831 125.649 10.3369 125.307 11.0943C124.965 11.8517 124.794 12.9615 124.794 14.424V28.8395C124.794 30.328 124.991 31.4381 125.386 32.1691C125.781 32.9003 126.518 33.2661 127.597 33.2661C128.702 33.2661 129.413 32.8939 129.729 32.1496C130.045 31.4053 130.203 30.3019 130.203 28.8395V25.7449H136.519V28.3694C136.519 31.399 135.848 33.7427 134.506 35.4008C133.164 37.0592 130.847 37.8883 127.557 37.8883C124.162 37.8885 121.753 36.9808 120.332 35.1659ZM107.303 26.4892L105.369 13.7189L103.474 26.4892H107.303ZM101.737 5.72767H108.962L115.121 37.4576H109.119L107.935 30.4848H102.881L101.658 37.4576H95.5379L101.737 5.72767ZM82.7461 10.5067H77.6531V5.72767H94.2747V10.5067H89.2605V37.4576H82.7461V10.5067ZM61.1104 35.4792C59.6365 33.8731 58.8339 31.3859 58.7021 28.0168L64.3085 27.0768C64.3611 29.0878 64.644 30.5696 65.1571 31.5227C65.6704 32.476 66.4403 32.9525 67.467 32.9525C68.2302 32.9525 68.7829 32.711 69.1251 32.228C69.4672 31.7451 69.6384 31.1245 69.6384 30.3672C69.6384 29.1136 69.3555 28.0496 68.7893 27.1747C68.2235 26.2997 67.3352 25.3401 66.1243 24.2955L62.808 21.4359C61.4656 20.2607 60.4523 19.079 59.768 17.8908C59.0835 16.7025 58.7413 15.2076 58.7413 13.4055C58.7413 10.8201 59.5179 8.82884 61.071 7.43159C62.624 6.0345 64.7691 5.33594 67.5064 5.33594C70.3752 5.33594 72.3691 6.16511 73.4878 7.82332C74.6064 9.48154 75.2448 11.5905 75.4027 14.1498L69.7568 14.9724C69.704 13.3272 69.52 12.0997 69.204 11.2902C68.8883 10.4807 68.2696 10.0758 67.3486 10.0758C66.5851 10.0758 65.9995 10.3369 65.5917 10.8593C65.1835 11.3816 64.9795 12.0214 64.9795 12.7787C64.9795 13.8495 65.2165 14.7374 65.6901 15.4425C66.164 16.1476 66.888 16.9311 67.8616 17.7928L71.0992 20.6133C72.652 22.0235 73.8563 23.4532 74.7118 24.9026C75.5669 26.352 75.9949 28.056 75.9949 30.0147C75.9949 31.5294 75.6528 32.8808 74.9683 34.0691C74.284 35.2573 73.3168 36.191 72.0664 36.8699C70.8163 37.5491 69.3749 37.8886 67.7432 37.8886C64.7955 37.8886 62.5845 37.0854 61.1104 35.4792Z" fill="white"/>
</g>
</mask>
<g mask="url(#mask4_40000366_6954)">
<g id="Group_10">
<g id="Mask group_6">
<mask id="mask5_40000366_6954" style="mask-type:luminance" maskUnits="userSpaceOnUse" x="-13" y="-6" width="183" height="74">
<g id="Group_11">
<path id="Vector_8" d="M169.64 -5.5625H-12.6909V67.3699H169.64V-5.5625Z" fill="white"/>
</g>
</mask>
<g mask="url(#mask5_40000366_6954)">
<g id="Group_12">
<path id="Vector_9" d="M160.609 4.62109H57.9834V38.5979H160.609V4.62109Z" fill="#9B9B9B"/>
</g>
</g>
</g>
</g>
</g>
</g>
</g>
<defs>
<clipPath id="clip0_40000366_6954">
<rect width="160" height="47.7333" fill="white"/>
</clipPath>
</defs>
</svg>
