<svg width="179" height="49" viewBox="0 0 179 49" fill="none" xmlns="http://www.w3.org/2000/svg">
<path d="M63.8473 42.5453C63.4849 42.5453 63.1562 42.4947 62.8612 42.3936C62.5746 42.284 62.3217 42.1407 62.1026 41.9637C61.8834 41.7867 61.7022 41.5802 61.5589 41.3442L61.4704 42.3936H60.5095V33.2905H61.5716V37.0708C61.7738 36.7421 62.0646 36.4597 62.4439 36.2237C62.8232 35.9877 63.291 35.8697 63.8473 35.8697C64.4626 35.8697 65.0021 36.0172 65.4657 36.3122C65.9292 36.5988 66.2875 36.9949 66.5403 37.5007C66.8016 37.9979 66.9323 38.5669 66.9323 39.2075C66.9323 39.8481 66.8016 40.4212 66.5403 40.9269C66.2875 41.4327 65.9292 41.8288 65.4657 42.1154C65.0021 42.402 64.4626 42.5453 63.8473 42.5453ZM63.7209 41.6223C64.1339 41.6223 64.5006 41.5212 64.8209 41.3189C65.1411 41.1166 65.3898 40.8384 65.5668 40.4844C65.7522 40.122 65.8449 39.6963 65.8449 39.2075C65.8449 38.727 65.7522 38.3056 65.5668 37.9432C65.3898 37.5807 65.1411 37.2984 64.8209 37.0961C64.5006 36.8938 64.1339 36.7926 63.7209 36.7926C63.2995 36.7926 62.9286 36.8938 62.6083 37.0961C62.288 37.2984 62.0394 37.5807 61.8624 37.9432C61.6853 38.3056 61.5968 38.727 61.5968 39.2075C61.5968 39.6963 61.6853 40.122 61.8624 40.4844C62.0394 40.8384 62.288 41.1166 62.6083 41.3189C62.9286 41.5212 63.2995 41.6223 63.7209 41.6223ZM68.613 45.1751L70.1681 41.6855H69.8015L67.2981 36.0214H68.4486L70.5221 40.889L72.6967 36.0214H73.7967L69.7256 45.1751H68.613ZM81.184 42.5453C80.535 42.5453 79.9702 42.4273 79.4898 42.1913C79.0093 41.9553 78.6385 41.6265 78.3772 41.2051C78.1159 40.7837 77.9852 40.2948 77.9852 39.7385H79.0978C79.0978 40.0841 79.1779 40.4044 79.3381 40.6994C79.4982 40.9859 79.73 41.2177 80.0334 41.3947C80.3453 41.5633 80.7288 41.6476 81.184 41.6476C81.5801 41.6476 81.9173 41.5844 82.1954 41.458C82.482 41.3231 82.6969 41.1419 82.8402 40.9143C82.9919 40.6867 83.0678 40.4297 83.0678 40.1431C83.0678 39.7975 82.9919 39.5193 82.8402 39.3086C82.6969 39.0895 82.4989 38.9125 82.246 38.7776C81.9931 38.6428 81.6981 38.5247 81.361 38.4236C81.0322 38.314 80.6867 38.2002 80.3242 38.0822C79.6246 37.8462 79.1105 37.5512 78.7818 37.1972C78.453 36.8432 78.2887 36.3838 78.2887 35.8191C78.2887 35.3387 78.3983 34.9172 78.6174 34.5548C78.845 34.1924 79.1653 33.91 79.5783 33.7077C79.9997 33.497 80.497 33.3916 81.0702 33.3916C81.6349 33.3916 82.1238 33.497 82.5368 33.7077C82.9582 33.9184 83.2869 34.2092 83.523 34.5801C83.759 34.9425 83.877 35.364 83.877 35.8444H82.7644C82.7644 35.6 82.7011 35.3597 82.5747 35.1237C82.4483 34.8877 82.2544 34.6939 81.9931 34.5422C81.7403 34.382 81.42 34.3019 81.0322 34.3019C80.712 34.2935 80.4254 34.3483 80.1725 34.4663C79.9281 34.5759 79.7342 34.736 79.5909 34.9467C79.4561 35.1575 79.3886 35.4145 79.3886 35.718C79.3886 36.0045 79.4476 36.2363 79.5656 36.4133C79.6921 36.5903 79.8691 36.7421 80.0967 36.8685C80.3327 36.9865 80.6066 37.0961 80.9185 37.1972C81.2303 37.2984 81.5759 37.4121 81.9552 37.5386C82.3851 37.6819 82.7644 37.8589 83.0931 38.0696C83.4302 38.2719 83.6915 38.5332 83.877 38.8535C84.0708 39.1738 84.1678 39.5826 84.1678 40.0799C84.1678 40.5013 84.054 40.9017 83.8264 41.281C83.6072 41.6518 83.2785 41.9553 82.8402 42.1913C82.4019 42.4273 81.8498 42.5453 81.184 42.5453ZM87.5621 42.3936V34.4157H84.9197V33.5433H91.2666V34.4157H88.6242V42.3936H87.5621ZM91.0067 42.3936L94.2686 33.5433H95.3939L98.6432 42.3936H97.5179L94.8249 34.8709L92.1193 42.3936H91.0067ZM92.4986 40.1178L92.802 39.2581H96.8099L97.1134 40.1178H92.4986ZM103.309 42.5453C102.449 42.5453 101.703 42.3556 101.071 41.9763C100.447 41.5886 99.9668 41.0534 99.6296 40.3706C99.2925 39.6795 99.1239 38.8788 99.1239 37.9684C99.1239 37.0581 99.2925 36.2616 99.6296 35.5789C99.9668 34.8877 100.447 34.3525 101.071 33.9732C101.703 33.5855 102.449 33.3916 103.309 33.3916C104.32 33.3916 105.142 33.6318 105.774 34.1123C106.406 34.5927 106.811 35.2712 106.988 36.1478H105.812C105.677 35.6 105.403 35.1617 104.99 34.8329C104.577 34.4958 104.017 34.3272 103.309 34.3272C102.677 34.3272 102.129 34.4747 101.665 34.7697C101.202 35.0563 100.843 35.4735 100.591 36.0214C100.338 36.5608 100.211 37.2099 100.211 37.9684C100.211 38.727 100.338 39.3803 100.591 39.9281C100.843 40.4676 101.202 40.8848 101.665 41.1798C102.129 41.4664 102.677 41.6097 103.309 41.6097C104.017 41.6097 104.577 41.4495 104.99 41.1292C105.403 40.8005 105.677 40.3664 105.812 39.827H106.988C106.811 40.6783 106.406 41.3442 105.774 41.8246C105.142 42.3051 104.32 42.5453 103.309 42.5453ZM108.528 42.3936V33.5433H109.59V37.5512L113.282 33.5433H114.622L111.335 37.0708L114.672 42.3936H113.383L110.576 37.8926L109.59 38.942V42.3936H108.528ZM122.001 42.5453C121.402 42.5453 120.871 42.4062 120.407 42.128C119.952 41.8499 119.594 41.4622 119.333 40.9649C119.072 40.4592 118.941 39.8734 118.941 39.2075C118.941 38.5332 119.067 37.9474 119.32 37.4501C119.581 36.9528 119.944 36.5651 120.407 36.2869C120.88 36.0088 121.419 35.8697 122.026 35.8697C122.65 35.8697 123.176 36.0088 123.606 36.2869C124.045 36.5651 124.377 36.9317 124.605 37.3869C124.841 37.8336 124.959 38.3267 124.959 38.8661C124.959 38.9504 124.959 39.0389 124.959 39.1316C124.959 39.2243 124.955 39.3297 124.946 39.4477H119.737V38.6259H123.922C123.897 38.0443 123.703 37.5892 123.341 37.2604C122.987 36.9317 122.54 36.7673 122.001 36.7673C121.638 36.7673 121.301 36.8516 120.989 37.0202C120.686 37.1804 120.441 37.4206 120.256 37.7409C120.07 38.0527 119.978 38.4447 119.978 38.9167V39.2707C119.978 39.7933 120.07 40.2316 120.256 40.5856C120.45 40.9396 120.698 41.2051 121.002 41.3821C121.314 41.5591 121.647 41.6476 122.001 41.6476C122.447 41.6476 122.814 41.5507 123.1 41.3568C123.395 41.1545 123.606 40.8848 123.733 40.5477H124.782C124.681 40.9269 124.504 41.2683 124.251 41.5717C123.998 41.8752 123.682 42.1154 123.303 42.2924C122.932 42.461 122.498 42.5453 122.001 42.5453ZM129.199 42.5453C128.584 42.5453 128.044 42.402 127.581 42.1154C127.117 41.8204 126.759 41.42 126.506 40.9143C126.253 40.4086 126.127 39.8354 126.127 39.1948C126.127 38.5542 126.253 37.9853 126.506 37.488C126.759 36.9823 127.117 36.5861 127.581 36.2996C128.053 36.013 128.596 35.8697 129.212 35.8697C129.734 35.8697 130.189 35.975 130.577 36.1858C130.973 36.3965 131.277 36.6915 131.487 37.0708V33.2905H132.549V42.3936H131.589L131.5 41.3442C131.365 41.5549 131.192 41.753 130.982 41.9384C130.771 42.1154 130.518 42.2629 130.223 42.3809C129.928 42.4905 129.587 42.5453 129.199 42.5453ZM129.325 41.6223C129.747 41.6223 130.118 41.5212 130.438 41.3189C130.758 41.1166 131.007 40.8384 131.184 40.4844C131.361 40.122 131.45 39.6963 131.45 39.2075C131.45 38.727 131.361 38.3056 131.184 37.9432C131.007 37.5807 130.758 37.2984 130.438 37.0961C130.118 36.8938 129.747 36.7926 129.325 36.7926C128.912 36.7926 128.546 36.8938 128.226 37.0961C127.905 37.2984 127.657 37.5807 127.48 37.9432C127.303 38.3056 127.214 38.727 127.214 39.2075C127.214 39.6963 127.303 40.122 127.48 40.4844C127.657 40.8384 127.905 41.1166 128.226 41.3189C128.546 41.5212 128.912 41.6223 129.325 41.6223ZM136.633 42.5453C136.144 42.5453 135.714 42.4483 135.343 42.2545C134.981 42.0606 134.698 41.7614 134.496 41.3568C134.302 40.9522 134.205 40.4465 134.205 39.8396V36.0214H135.267V39.7258C135.267 40.358 135.406 40.8342 135.684 41.1545C135.963 41.4748 136.354 41.635 136.86 41.635C137.214 41.635 137.534 41.5507 137.821 41.3821C138.108 41.2051 138.331 40.9564 138.491 40.6362C138.66 40.3074 138.744 39.9071 138.744 39.4351V36.0214H139.806V42.3936H138.845L138.782 41.281C138.588 41.6771 138.302 41.989 137.922 42.2166C137.543 42.4357 137.113 42.5453 136.633 42.5453ZM144.437 42.5453C143.838 42.5453 143.299 42.4062 142.818 42.128C142.346 41.8499 141.975 41.4622 141.706 40.9649C141.436 40.4592 141.301 39.8776 141.301 39.2201C141.301 38.5458 141.436 37.96 141.706 37.4627C141.975 36.9654 142.346 36.5777 142.818 36.2996C143.299 36.013 143.838 35.8697 144.437 35.8697C145.195 35.8697 145.827 36.0678 146.333 36.4639C146.839 36.8516 147.159 37.3742 147.294 38.0317H146.207C146.122 37.6355 145.916 37.3279 145.587 37.1087C145.258 36.8896 144.871 36.78 144.424 36.78C144.061 36.78 143.724 36.8727 143.412 37.0581C143.101 37.2351 142.852 37.5049 142.666 37.8673C142.481 38.2297 142.388 38.6765 142.388 39.2075C142.388 39.6036 142.443 39.9576 142.553 40.2695C142.662 40.5729 142.81 40.8258 142.995 41.0281C143.181 41.2304 143.396 41.3863 143.64 41.4959C143.893 41.597 144.154 41.6476 144.424 41.6476C144.727 41.6476 145.001 41.6012 145.246 41.5085C145.49 41.4074 145.697 41.2599 145.865 41.066C146.034 40.8722 146.148 40.6446 146.207 40.3833H147.294C147.159 41.0239 146.835 41.5465 146.32 41.951C145.815 42.3472 145.187 42.5453 144.437 42.5453ZM150.875 42.5453C150.361 42.5453 149.931 42.4568 149.586 42.2798C149.24 42.0943 148.983 41.8541 148.814 41.5591C148.646 41.2557 148.562 40.9269 148.562 40.5729C148.562 40.1431 148.671 39.7806 148.89 39.4856C149.118 39.1822 149.434 38.9546 149.839 38.8029C150.252 38.6428 150.736 38.5627 151.292 38.5627H152.974C152.974 38.1665 152.911 37.8378 152.784 37.5765C152.666 37.3068 152.489 37.1045 152.253 36.9696C152.026 36.8348 151.739 36.7673 151.394 36.7673C150.989 36.7673 150.639 36.8685 150.344 37.0708C150.049 37.2731 149.868 37.5723 149.801 37.9684H148.713C148.764 37.5133 148.916 37.134 149.168 36.8306C149.43 36.5187 149.758 36.2827 150.155 36.1225C150.551 35.954 150.964 35.8697 151.394 35.8697C151.984 35.8697 152.472 35.9793 152.86 36.1984C153.256 36.4091 153.551 36.7083 153.745 37.0961C153.939 37.4754 154.036 37.9263 154.036 38.4489V42.3936H153.088L153.025 41.2683C152.94 41.4453 152.831 41.6139 152.696 41.774C152.569 41.9258 152.418 42.0606 152.241 42.1786C152.064 42.2882 151.861 42.3767 151.634 42.4441C151.415 42.5116 151.162 42.5453 150.875 42.5453ZM151.04 41.6476C151.335 41.6476 151.6 41.5886 151.836 41.4706C152.081 41.3442 152.287 41.1756 152.456 40.9649C152.624 40.7457 152.751 40.5055 152.835 40.2442C152.928 39.9829 152.974 39.709 152.974 39.4224V39.3845H151.381C150.968 39.3845 150.635 39.4351 150.382 39.5362C150.129 39.6289 149.948 39.7638 149.839 39.9408C149.729 40.1094 149.674 40.3032 149.674 40.5224C149.674 40.7499 149.725 40.948 149.826 41.1166C149.935 41.2852 150.091 41.4158 150.294 41.5085C150.504 41.6012 150.753 41.6476 151.04 41.6476ZM158.009 42.3936C157.63 42.3936 157.301 42.3346 157.023 42.2166C156.745 42.0985 156.53 41.9005 156.378 41.6223C156.235 41.3357 156.164 40.9522 156.164 40.4718V36.9191H155.051V36.0214H156.164L156.303 34.4789H157.226V36.0214H159.071V36.9191H157.226V40.4718C157.226 40.8679 157.306 41.1377 157.466 41.281C157.626 41.4158 157.908 41.4832 158.313 41.4832H158.996V42.3936H158.009ZM160.558 42.3936V36.0214H161.62V42.3936H160.558ZM161.089 34.6686C160.879 34.6686 160.702 34.6012 160.558 34.4663C160.423 34.323 160.356 34.146 160.356 33.9353C160.356 33.7246 160.423 33.556 160.558 33.4296C160.702 33.2947 160.879 33.2273 161.089 33.2273C161.292 33.2273 161.464 33.2947 161.608 33.4296C161.751 33.556 161.823 33.7246 161.823 33.9353C161.823 34.146 161.751 34.323 161.608 34.4663C161.464 34.6012 161.292 34.6686 161.089 34.6686ZM166.339 42.5453C165.749 42.5453 165.218 42.4104 164.746 42.1407C164.274 41.8625 163.903 41.4748 163.634 40.9775C163.364 40.4718 163.229 39.886 163.229 39.2201C163.229 38.5374 163.364 37.9474 163.634 37.4501C163.912 36.9444 164.287 36.5566 164.759 36.2869C165.239 36.0088 165.774 35.8697 166.364 35.8697C166.971 35.8697 167.507 36.0088 167.97 36.2869C168.442 36.5566 168.813 36.9444 169.083 37.4501C169.361 37.9474 169.5 38.5332 169.5 39.2075C169.5 39.8818 169.361 40.4718 169.083 40.9775C168.805 41.4748 168.43 41.8625 167.958 42.1407C167.486 42.4104 166.946 42.5453 166.339 42.5453ZM166.352 41.635C166.714 41.635 167.051 41.5465 167.363 41.3695C167.675 41.184 167.928 40.9101 168.122 40.5477C168.316 40.1852 168.413 39.7385 168.413 39.2075C168.413 38.668 168.316 38.2213 168.122 37.8673C167.936 37.5049 167.688 37.2351 167.376 37.0581C167.073 36.8727 166.735 36.78 166.364 36.78C166.01 36.78 165.673 36.8727 165.353 37.0581C165.041 37.2351 164.788 37.5049 164.594 37.8673C164.409 38.2213 164.316 38.668 164.316 39.2075C164.316 39.7385 164.409 40.1852 164.594 40.5477C164.788 40.9101 165.037 41.184 165.34 41.3695C165.652 41.5465 165.989 41.635 166.352 41.635ZM170.989 42.3936V36.0214H171.95L172 37.134C172.203 36.7378 172.489 36.4302 172.86 36.211C173.24 35.9835 173.669 35.8697 174.15 35.8697C174.647 35.8697 175.077 35.9708 175.439 36.1731C175.802 36.367 176.084 36.6662 176.287 37.0708C176.489 37.4669 176.59 37.9727 176.59 38.588V42.3936H175.528V38.7018C175.528 38.0612 175.385 37.5807 175.098 37.2604C174.82 36.9401 174.424 36.78 173.91 36.78C173.556 36.78 173.24 36.8685 172.961 37.0455C172.683 37.2141 172.46 37.4627 172.291 37.7914C172.131 38.1117 172.051 38.5121 172.051 38.9925V42.3936H170.989Z" fill="#6E736F"/>
<path d="M60.0202 20.1659V6.14716H62.8017V20.1659H60.0202ZM61.4388 3.50474C60.901 3.50474 60.456 3.33785 60.1036 3.00407C59.7699 2.67029 59.603 2.24379 59.603 1.72458C59.603 1.22391 59.7699 0.815957 60.1036 0.500721C60.456 0.166942 60.901 5.2075e-05 61.4388 5.2075e-05C61.958 5.2075e-05 62.3937 0.166942 62.7461 0.500721C63.0984 0.815957 63.2746 1.22391 63.2746 1.72458C63.2746 2.24379 63.0984 2.67029 62.7461 3.00407C62.3937 3.33785 61.958 3.50474 61.4388 3.50474ZM66.2229 20.1659V6.14716H68.7263L68.8932 8.53924C69.3382 7.70479 69.9687 7.04651 70.7846 6.56438C71.6005 6.06371 72.5369 5.81338 73.5939 5.81338C74.7065 5.81338 75.6615 6.0359 76.4588 6.48094C77.2562 6.92598 77.8774 7.60281 78.3224 8.51143C78.7675 9.40151 78.99 10.5234 78.99 11.877V20.1659H76.2085V12.1552C76.2085 10.8572 75.9211 9.87436 75.3462 9.2068C74.7714 8.53924 73.937 8.20546 72.8429 8.20546C72.1197 8.20546 71.4707 8.38162 70.8959 8.73395C70.321 9.06773 69.8574 9.5684 69.5051 10.236C69.1713 10.9035 69.0044 11.7194 69.0044 12.6837V20.1659H66.2229ZM88.4725 20.4997C87.1189 20.4997 85.9135 20.1937 84.8566 19.5818C83.7996 18.9513 82.9652 18.089 82.3532 16.995C81.7598 15.9009 81.4631 14.6307 81.4631 13.1843C81.4631 11.7194 81.7598 10.4399 82.3532 9.34588C82.9652 8.23328 83.7996 7.37101 84.8566 6.75909C85.9135 6.12861 87.1189 5.81338 88.4725 5.81338C90.1785 5.81338 91.6063 6.25842 92.756 7.14849C93.9057 8.03857 94.6382 9.24389 94.9534 10.7644H92.0606C91.8752 9.94853 91.4487 9.31806 90.7812 8.87302C90.1321 8.42798 89.3533 8.20546 88.4447 8.20546C87.703 8.20546 87.0169 8.40017 86.3864 8.78958C85.7559 9.16044 85.246 9.71674 84.8566 10.4585C84.4857 11.1817 84.3003 12.081 84.3003 13.1565C84.3003 13.9539 84.4115 14.6678 84.634 15.2983C84.8566 15.9102 85.1533 16.4294 85.5241 16.8559C85.9135 17.2824 86.3586 17.6069 86.8592 17.8294C87.3599 18.0334 87.8884 18.1354 88.4447 18.1354C89.0566 18.1354 89.6037 18.0427 90.0858 17.8573C90.5864 17.6533 91.0037 17.3566 91.3375 16.9672C91.6898 16.5778 91.9308 16.1142 92.0606 15.5764H94.9534C94.6382 17.0599 93.9057 18.2559 92.756 19.1646C91.6063 20.0546 90.1785 20.4997 88.4725 20.4997ZM97.6517 20.1659V0.139127H100.433V20.1659H97.6517ZM103.891 20.1659V6.14716H106.672V20.1659H103.891ZM105.309 3.50474C104.771 3.50474 104.326 3.33785 103.974 3.00407C103.64 2.67029 103.473 2.24379 103.473 1.72458C103.473 1.22391 103.64 0.815957 103.974 0.500721C104.326 0.166942 104.771 5.2075e-05 105.309 5.2075e-05C105.828 5.2075e-05 106.264 0.166942 106.617 0.500721C106.969 0.815957 107.145 1.22391 107.145 1.72458C107.145 2.24379 106.969 2.67029 106.617 3.00407C106.264 3.33785 105.828 3.50474 105.309 3.50474ZM110.093 20.1659V6.14716H112.597L112.764 8.53924C113.209 7.70479 113.839 7.04651 114.655 6.56438C115.471 6.06371 116.407 5.81338 117.464 5.81338C118.577 5.81338 119.532 6.0359 120.329 6.48094C121.127 6.92598 121.748 7.60281 122.193 8.51143C122.638 9.40151 122.86 10.5234 122.86 11.877V20.1659H120.079V12.1552C120.079 10.8572 119.792 9.87436 119.217 9.2068C118.642 8.53924 117.807 8.20546 116.713 8.20546C115.99 8.20546 115.341 8.38162 114.766 8.73395C114.191 9.06773 113.728 9.5684 113.376 10.236C113.042 10.9035 112.875 11.7194 112.875 12.6837V20.1659H110.093ZM132.204 20.4997C130.869 20.4997 129.682 20.1937 128.644 19.5818C127.605 18.9699 126.789 18.1169 126.196 17.0228C125.621 15.9287 125.334 14.6585 125.334 13.2122C125.334 11.7287 125.621 10.4399 126.196 9.34588C126.789 8.23328 127.605 7.37101 128.644 6.75909C129.682 6.12861 130.887 5.81338 132.26 5.81338C133.632 5.81338 134.809 6.11934 135.792 6.73127C136.775 7.3432 137.535 8.15911 138.073 9.17899C138.611 10.1803 138.88 11.2929 138.88 12.5168C138.88 12.7022 138.87 12.9062 138.852 13.1287C138.852 13.3327 138.842 13.5645 138.824 13.8241H127.364V11.8492H136.098C136.042 10.681 135.653 9.77237 134.93 9.12336C134.207 8.4558 133.307 8.12202 132.232 8.12202C131.471 8.12202 130.776 8.29818 130.146 8.6505C129.515 8.98428 129.005 9.48495 128.616 10.1525C128.245 10.8015 128.059 11.6267 128.059 12.628V13.4069C128.059 14.4453 128.245 15.3261 128.616 16.0493C129.005 16.7539 129.515 17.2917 130.146 17.6625C130.776 18.0149 131.462 18.191 132.204 18.191C133.094 18.191 133.826 17.9963 134.401 17.6069C134.976 17.2175 135.403 16.689 135.681 16.0215H138.462C138.221 16.8745 137.813 17.644 137.238 18.3301C136.664 18.9977 135.95 19.5261 135.097 19.9156C134.262 20.305 133.298 20.4997 132.204 20.4997Z" fill="#6E736F"/>
<mask id="mask0_1367_355" style="mask-type:luminance" maskUnits="userSpaceOnUse" x="0" y="0" width="25" height="49">
<path d="M21.4938 41.7537L6.58343 26.8311L2.85253 26.8309L24.1281 48.1239V21.5401H6.38869L21.4938 6.47775V18.9206H24.1281V0.123901L0 24.1838H21.4938V41.7537Z" fill="white"/>
</mask>
<g mask="url(#mask0_1367_355)">
<mask id="mask1_1367_355" style="mask-type:luminance" maskUnits="userSpaceOnUse" x="-8" y="-11" width="169" height="69">
<path d="M160.2 -10.0491H-7.24658V57.6534H160.2V-10.0491Z" fill="white"/>
</mask>
<g mask="url(#mask1_1367_355)">
<path d="M24.7923 -0.540771H-0.654297V48.7815H24.7923V-0.540771Z" fill="#F5A631"/>
</g>
</g>
<mask id="mask2_1367_355" style="mask-type:luminance" maskUnits="userSpaceOnUse" x="26" y="0" width="25" height="49">
<path d="M29.406 41.7537L44.3165 26.8311L48.0473 26.8309L26.7717 48.1239V21.5401H44.5112L29.406 6.47775V18.9206H26.7717V0.123901L50.8999 24.1838H29.406V41.7537Z" fill="white"/>
</mask>
<g mask="url(#mask2_1367_355)">
<mask id="mask3_1367_355" style="mask-type:luminance" maskUnits="userSpaceOnUse" x="-8" y="-11" width="169" height="69">
<path d="M160.201 -10.0491H-7.24536V57.6534H160.201V-10.0491Z" fill="white"/>
</mask>
<g mask="url(#mask3_1367_355)">
<path d="M51.5577 -0.540771H26.1111V48.7815H51.5577V-0.540771Z" fill="#F5A631"/>
</g>
</g>
</svg>
